<svg xmlns="http://www.w3.org/2000/svg" viewBox="0 0 401.95 430.36"><defs><style>.cls-1{fill:#3bf;}.cls-2{fill:#7ad2ff;}</style></defs><title>cloud-writer</title><g id="Layer_2" data-name="Layer 2"><g id="Main"><path class="cls-1" d="M114.55,286.82a146.44,146.44,0,0,0,56.2,54.88q35.87,20.06,79.67,20.05,66.5,0,109.23-44.32L402,357.06Q375,386.39,336,401.91t-84.73,15.54q-61,0-109.93-27a197.32,197.32,0,0,1-76.8-74.75Z"/><path id="Drop" class="cls-2" d="M101.7,430.36a118.12,118.12,0,0,0,36-45.87c14.57-33.66,16.09-82.83-9.49-109-27.37-28.06-60.08-3.42-94-30C.68,219.27-9.35,160.86,9.24,115.38,28.32,68.73,71.78,50.9,82.34,47c62-23.16,136.21,5.09,175,54.77,65.38,83.76,6.27,198-.75,211C209.17,400.94,119,425.91,101.7,430.36Z"/><path class="cls-1" d="M64.54,315.73q-27.86-47.79-27.85-107t27.85-107Q92.38,53.95,141.64,27T251.86,0q45.74,0,84.43,15.24T402,59.8l-42.3,39.7Q316.38,55.7,250.42,55.7q-43.8,0-79.67,20a146.51,146.51,0,0,0-56.2,54.88q-20.33,34.83-20.32,78.1t20.32,78.09Z"/></g></g></svg>