<?xml version="1.0" encoding="UTF-8"?>
<svg width="34px" height="38px" viewBox="0 0 34 38" version="1.1" xmlns="http://www.w3.org/2000/svg" xmlns:xlink="http://www.w3.org/1999/xlink">
    <!-- Generator: Sketch 53 (72520) - https://sketchapp.com -->
    <title>book</title>
    <desc>Created with Sketch.</desc>
    <defs>
        <path d="M23.3333333,5.69035594 L6.66666667,22.3570226 L6.66666667,26.6666667 L10.9763107,26.6666667 L27.6429774,10 L23.3333333,5.69035594 Z M24.5118446,2.15482203 L31.1785113,8.8214887 C31.8293851,9.47236252 31.8293851,10.5276375 31.1785113,11.1785113 L12.845178,29.5118446 C12.5326173,29.8244053 12.1086941,30 11.6666667,30 L5,30 C4.07952542,30 3.33333333,29.2538079 3.33333333,28.3333333 L3.33333333,21.6666667 C3.33333333,21.2246392 3.50892807,20.800716 3.8214887,20.4881554 L22.154822,2.15482203 C22.8056959,1.50394821 23.8609708,1.50394821 24.5118446,2.15482203 Z M5,38.3333333 C4.07952542,38.3333333 3.33333333,37.5871412 3.33333333,36.6666667 C3.33333333,35.7461921 4.07952542,35 5,35 L35,35 C35.9204746,35 36.6666667,35.7461921 36.6666667,36.6666667 C36.6666667,37.5871412 35.9204746,38.3333333 35,38.3333333 L5,38.3333333 Z" id="path-1"></path>
    </defs>
    <g id="Page-1" stroke="none" stroke-width="1" fill="none" fill-rule="evenodd">
        <g id="Full-HD" transform="translate(-33.000000, -31.000000)">
            <g id="Toolbar">
                <g id="Header">
                    <g id="Icon">
                        <g id="edit-3" transform="translate(30.000000, 30.000000)">
                            <mask id="mask-2" fill="white">
                                <use xlink:href="#path-1"></use>
                            </mask>
                            <g id="White" mask="url(#mask-2)" fill="#33bbff" fill-rule="evenodd">
                                <rect id="Background" x="0" y="0" width="40" height="40"></rect>
                            </g>
                        </g>
                    </g>
                </g>
            </g>
        </g>
    </g>
</svg>